<svg xmlns="http://www.w3.org/2000/svg" viewBox="0 0 20 20" fill="currentColor">
  <path d="M10 2C7.2 2 5 4.2 5 7c0 .8.2 1.5.5 2.2L4 10.7c-.3.3-.3.8 0 1.1l.9.9c.3.3.8.3 1.1 0L7.5 11c.7.3 1.4.5 2.2.5h.6c.8 0 1.5-.2 2.2-.5L14 12.7c.3.3.8.3 1.1 0l.9-.9c.3-.3.3-.8 0-1.1l-1.5-1.5c.3-.7.5-1.4.5-2.2 0-2.8-2.2-5-5-5zm-2 5c0-.6.4-1 1-1s1 .4 1 1-.4 1-1 1-1-.4-1-1zm3 0c0-.6.4-1 1-1s1 .4 1 1-.4 1-1 1-1-.4-1-1z"/>
  <path d="M6 14h8v1H6v-1zm1 2h6v1H7v-1zm1 2h4v1H8v-1z"/>
  <circle cx="8" cy="5" r=".5"/>
  <circle cx="12" cy="5" r=".5"/>
  <circle cx="10" cy="4" r=".5"/>
</svg>